<svg width="312" height="239" fill="none" xmlns="http://www.w3.org/2000/svg">
  <path d="M284.927 167.73c-.453-.143-9.767-4.574-13.737-13.298-3.731-7.902-1.988-16.568-1.57-18.678.072-.227.143-.453.143-.453l.227.071c1.741.798 9.779 5.325 13.51 13.227 4.125 9.022 1.427 19.131 1.427 19.131ZM32.4777 123.462c-9.6383 3.687-18.774 1.057-19.0006.985-.2266-.071 7.41-11.614 17.8115-14.563 10.1749-3.021 18.1529 2.484 18.1529 2.484S42.0444 120 32.4777 123.462Zm16.687-18.891c-9.6741 1.434-18.3088-2.783-18.2372-3.009-.2266-.072 8.9484-9.3865 19.4573-10.3088 10.2822-.9938 16.8529 5.811 16.8529 5.811-.0716.2266-8.3989 6.0718-18.073 7.5068Zm19.1565-14.8755c-9.5546-.5208-17.0086-6.1095-16.937-6.3361-.2266-.0714 10.0337-7.301 20.4232-6.2679 10.1629.9617 15.3975 8.841 15.3975 8.841-.2983.1551-9.3291 4.2838-18.8837 3.763ZM89.1959 78.849c-9.28-2.1783-15.3263-9.0672-15.2547-9.2937-.2266-.0715 11.1189-5.2151 20.7088-2.4408 9.59 2.7744 13.405 11.2027 13.405 11.2027-.072.2266-9.5792 2.7101-18.8591.5318Zm22.2941-6.6639c-8.551-3.6927-13.2611-11.6558-13.2611-11.6558s11.6791-3.0451 20.5411 1.2437c8.861 4.2889 11.03 13.1947 11.03 13.1947s-9.758.9102-18.31-2.7826Z" fill="#EC2027"/>
  <path d="M98.1545 60.759s.0717-.2267-.1549-.2982c.0716-.2265-.0835-.5239-.0119-.7504.1081-2.7058.9804-9.405 7.0523-15.2123 8.004-7.1909 21.218-8.0072 21.444-7.9358 0 0-1.815 8.8928-9.759 15.1062-4.008 3.22-9.005 5.6298-12.965 7.1214-2.91 1.3243-5.6055 1.9691-5.6055 1.9691Zm36.2155 8.4328c-7.824-5.2072-10.959-13.4212-10.887-13.6478 0 0 12.012-.9466 19.919 4.7852s8.501 14.8883 8.501 14.8883-9.709-.8185-17.533-6.0257Z" fill="#EC2027"/>
  <path d="M123.336 56.0025s.909-9.1789 9.915-14.809c9.006-5.6301 22.256-4.1933 22.483-4.1219 0 0-3.33 8.1669-12.121 13.1175-6.334 3.4833-13.979 4.8094-17.879 5.3236l-2.398.4898Zm25.552-.4066s2.495-8.6795 12.277-12.8202c10.008-4.0693 22.996-.2242 22.996-.2242-.072.2265-4.845 7.4405-14.34 10.6751-9.566 3.4611-20.706 2.4408-20.933 2.3693Zm45.744 31.1076s-9.159-4.1328-14.608-11.331c-5.676-7.2696-5.662-15.9842-5.59-16.2108 0 0 .227.0715.68.2143 2.719.8572 11.712 3.9412 16.481 10.9251 5.46 7.9493 3.037 16.4024 3.037 16.4024Z" fill="#EC2027"/>
  <path d="m174.357 59.3958.071-.2267s0 .0003.072-.2262c1.026-1.6696 5.059-8.1214 14.125-9.997 9.591-1.9592 20.564 2.7452 22.532 3.6147l.226.0714c-.071.2266-6.061 6.5599-16.26 8.0783-7.575 1.1-15.864-.2676-19.335-1.1126-.752.0122-1.431-.2019-1.431-.2019Zm39.85 38.7125s-8.359-5.8733-12.543-13.9178c-4.411-8.1159-2.894-16.8546-2.667-16.7831.68.2143 11.054 5.2288 15.024 13.9529 4.196 8.7955-.04 16.6765.186 16.748Z" fill="#EC2027"/>
  <path d="M202.175 69.1658c-2.195-.9411-3.555-1.3694-3.555-1.3694s.001-.0003.299-.1554c0 0 0-.0002.071-.2268 1.253-1.5983 6.432-6.9419 15.748-7.2439 10.819-.3265 22.15 7.9793 21.923 7.9078 0 0-7.135 5.2259-17.513 4.9441-6.393-.2716-13.12-2.6419-16.973-3.8564Zm29.485 43.9112s-7.106-7.472-10.097-16.1359c-2.919-8.8909.184-17.1284.184-17.1284.226.0714 10.254 6.9689 12.66 16.6943 2.478 9.499-2.974 16.498-2.747 16.57Z" fill="#EC2027"/>
  <path d="M236.446 87.6939c-7.86-2.7273-14.396-7.2794-14.777-7.6489 0 0 6.669-6.1198 17.369-4.4907 10.926 1.7005 20.634 11.9865 20.562 12.2131 0 0-7.91 3.7356-18.096 1.2716-1.885-.345-3.471-.8449-5.058-1.3451Zm10.234 43.3191c-.691-.966-6.007-9.366-7.424-18.281-1.25-7.866 1.804-14.3751 2.902-16.2707.143-.453.37-.382.37-.382l.226.0714c.227.0714.382.3695.918 1.0367 2.444 2.5139 8.047 10.0086 8.772 17.9586.606 9.905-5.99 15.795-5.764 15.867Z" fill="#EC2027"/>
  <path d="M260.174 109.621c-8.48-3.919-15.802-10.713-17.711-12.5604-.155-.298-.381-.3697-.381-.3697s.966-.6921 2.613-1.1697c3.066-1.0268 8.684-2.2449 15.34.3517 10.436 4.0378 18.521 16.3041 18.449 16.5301l-1.05.168c-1.049.167-2.552.192-4.58.3-.525.084-1.205-.131-1.73-.047-3.316-.547-7.085-1.237-10.95-3.203Zm-1.932 43.965c.072-.227-4.373-10.594-4.299-20.284.229-9.392 5.537-15.938 5.906-16.319l.227.071.227.072c.154.298.31.595.464.893 1.776 3.05 6.496 11.761 5.802 20.26-.885 10.679-8.554 15.235-8.327 15.307Z" fill="#EC2027"/>
  <path d="M275.529 134.386c-5.785-4.564-10.685-10.345-13.524-13.98l-.155-.298c-1.454-1.704-2.074-2.897-2.074-2.897l.226.072c1.348-.323 9.055-2.627 17.94 3.164 9.338 5.934 14.881 19.142 15.43 20.561l-.072.227s-8.946-.08-17.771-6.849Z" fill="#EC2027"/>
  <path d="M259.771 117.21c.155.298.311.596.537.667l-.537-.667Z" fill="#991C1F"/>
  <path d="M275.529 134.386c-2.969-2.432-5.867-5.089-8.312-7.604-1.323-2.909-2.873-5.889-4.495-8.643 9.912 4.122 29.435 21.987 30.58 23.095 0 0-8.947-.08-17.773-6.848Z" fill="url(#a)"/>
  <path d="m278.273 113.085-.227-.072c.072-.226.298-.155.227.072Z" fill="#991C1F"/>
  <path d="M260.175 109.62c-1.741-.798-3.411-1.823-4.854-2.777-2.505-1.537-4.712-3.229-6.537-4.552-1.61-2.003-3.518-3.8509-5.426-5.6985.978.0593 2.338.4882 3.769.6903 11.404 3.3462 31.729 14.7382 31.729 14.7382l-1.05.168c-1.05.167-2.553.192-4.581.3-.525.084-1.205-.131-1.73-.047-3.686-.166-7.455-.856-11.32-2.822Z" fill="url(#b)"/>
  <path d="M246.454 130.941c-.465-.894-6.008-9.366-7.199-18.209-1.25-7.866 1.804-14.3748 2.902-16.2703.071-.2265.37-.382.37-.382.369-.3816.667-.5362.667-.5362s.084.5244.322 1.3467c.834 5.2438 4.681 25.3848 2.938 34.0508Z" fill="url(#c)"/>
  <path d="m236.447 87.693-14.778-7.6501c14.16-3.0105 37.933 7.7245 37.933 7.7245s-7.91 3.7356-18.097 1.271c-1.885-.3451-3.471-.8452-5.058-1.3454Z" fill="url(#d)"/>
  <path d="M231.661 113.077s-7.107-7.472-10.098-16.1358c-2.92-8.8908.183-17.1281.183-17.1281 6.546 5.3017 9.915 33.2639 9.915 33.2639Z" fill="url(#e)"/>
  <path d="m202.175 69.1646-3.185-1.7516s0 .0003.299-.1548c11.13-4.4636 37.897.7368 37.897.7368s-7.134 5.2251-17.512 4.9428c-6.919-.1881-13.646-2.5585-17.499-3.7732Z" fill="url(#f)"/>
  <path d="M214.208 98.1083s-8.36-5.8735-12.544-13.918c-4.411-8.116-2.894-16.8543-2.668-16.7829 6.153 4.1816 15.212 30.7009 15.212 30.7009Z" fill="url(#g)"/>
  <path d="m176.169 59.9668-1.741-.7983.298-.1548c9.77-4.8917 31.552-5.9972 36.657-6.3806l.227.0714c-.072.2266-6.061 6.5595-16.26 8.0774-7.647 1.3263-15.638-.1965-19.181-.8151Z" fill="url(#h)"/>
  <path d="M194.632 86.7038s-9.159-4.133-14.608-11.3312c-5.676-7.2697-5.662-15.984-5.591-16.2106 0 0 .227.0715.68.2144 8.11 4.3004 19.519 27.3274 19.519 27.3274Z" fill="url(#i)"/>
  <path d="M148.888 55.5952c10.236-8.73 35.273-13.0428 35.273-13.0428-.072.2266-4.845 7.4401-14.34 10.6743-9.566 3.4607-20.706 2.4399-20.933 2.3685Z" fill="url(#j)"/>
  <path d="M123.337 56.0018c7.659-10.0396 32.397-18.9292 32.397-18.9292s-3.33 8.1666-12.121 13.1167c-6.334 3.483-13.979 4.8088-17.879 5.3229l-2.397.4896Z" fill="url(#k)"/>
  <path d="M97.9998 60.4603c.0716-.2265-.0834-.5242.0598-.9772 1.9814-7.8437 28.7224-23.0746 28.7224-23.0746s-1.814 8.8921-9.758 15.1051c-4.008 3.2197-9.006 5.6293-12.965 7.1207l-6.0592 1.826Z" fill="url(#l)"/>
  <path d="m260.242 118.104 1.538 2.228.155.298c1.228 1.633 2.993 3.933 5.211 6.375 2.873 5.888 5.078 12.312 6.758 18.819l-1.944.633c-2.645-10.548-6.627-20.023-11.718-28.353Z" fill="url(#m)"/>
  <path d="M258.242 153.585c.072-.227-4.374-10.594-4.3-20.284.228-9.392 5.536-15.936 5.905-16.318l.227.072.227.071c.155.298.381.369.536.667.523 9.38-.984 28.33-2.595 35.792Z" fill="url(#n)"/>
  <path d="m2.26626 156.796-2.039625-.643c.346164-1.883.918975-3.696 1.420165-5.281.50119-1.586 1.00228-3.171 1.50348-4.757.28639-.906.57275-1.812.85914-2.718.1432-.453.28654-.906.50133-1.586 3.81841-10.503 9.15155-20.279 15.84445-29.626.0716-.227.4414-.608.513-.835 1.9089-2.885 3.9728-5.472 6.2634-7.988 8.4823-10.2781 18.4913-19.0786 30.0269-26.4011 3.1254-2.0035 5.9526-3.8518 9.2331-5.5574 2.3858-1.2404 4.7716-2.4809 7.0859-3.4948 4.4017-2.0992 8.6604-3.7456 12.919-5.3918 3.8887-1.2647 7.7774-2.5292 11.5946-3.5673 0 0 .2267.0712.2983-.1553 3.8176-1.0382 7.5626-1.8498 11.5346-2.59.299-.1551.752-.012 1.05-.1671 4.199-.6687 8.398-1.3374 12.68-1.4816.298-.1551.751-.012 1.05-.1671 3.077-.275 5.856-.3951 8.862-.4437.525-.0836.978.0595 1.503-.0241 4.736-.0014 9.4.2238 14.219.7469.226.0715.226.0715.453.1429 1.956.1187 3.841.4635 5.725.8087.752-.0121 1.432.2026 2.112.4169.751-.0121 1.431.2021 2.338.4879 4.973.8211 9.649 1.797 14.253 2.9997.454.1429.907.2858 1.36.4288.227.0714.68.2143.907.2858.226.0715.68.2144.906.2858 1.133.3573 2.266.7149 3.471.8457 6.191 1.7029 12.011 3.787 17.832 5.8715l.227.0714c3.101 1.227 5.975 2.3828 8.778 3.7648.68.2143 1.515.7263 2.195.9407 4.318 2.1087 8.564 4.4442 12.584 6.7079l.226.0715c.453.1429.608.4411.835.5125 3.113 1.978 6.226 3.9555 9.041 6.0884.382.3695.99.8108 1.443.9537.227.0715.382.3691.608.4406.382.3694.835.5122 1.217.8816 2.743 2.3595 5.486 4.7191 8.23 7.0786.226.0714.155.2982.381.3696.537.6674 1.145 1.1083 1.682 1.7757 3.053 2.9554 5.736 6.2927 8.193 9.5577.155.298.537.667.692.965 2.075 2.896 4.15 5.793 5.927 8.844l.155.298.465.894c-.226-.072-.453-.143-.453-.143-.453-.143-.907-.286-1.36-.429-.226-.071-.453-.143-.68-.214l-.226-.072c-2.779-4.612-6.154-8.915-9.529-13.217-.537-.667-1.145-1.108-1.455-1.704-.227-.072-.155-.298-.382-.37-.536-.667-1.073-1.3346-1.681-1.7755-.227-.0714-.156-.2976-.156-.2976-.381-.3695-.763-.739-.918-1.037-.382-.3694-.763-.7389-1.145-1.1084-.155-.2979-.382-.3691-.608-.4405-.227-.0715-.155-.2982-.382-.3697l-.226-.0714s-.227-.0717-.155-.2982c0 0-.227-.0711-.155-.2976l-.227-.0715c-3.28-3.0269-6.631-5.8275-10.281-8.4728-1.443-.9532-3.042-2.2043-4.485-3.1576-.835-.5123-1.443-.9533-2.278-1.4656-.835-.5124-1.443-.9534-2.278-1.4657l-.227-.0715c-.381-.3694-.834-.5122-1.216-.8817-4.401-2.6331-9.101-5.1112-14.098-7.4342-.454-.143-1.062-.5841-1.515-.727-1.288-.6553-2.648-1.0839-4.163-1.8106-1.133-.3573-1.968-.8693-3.101-1.2266-4.008-1.5128-8.015-3.026-12.095-4.3123l-1.359-.4287c-1.813-.5717-3.627-1.1431-5.511-1.4883-1.587-.5002-3.245-.7737-4.831-1.2739l-.227-.0715c-4.604-1.2026-9.506-2.2506-14.707-3.1431-8.969-1.5829-17.927-2.4148-26.719-2.1978-.978-.0593-1.729-.0468-2.779.1204-2.254.0364-4.282.144-6.31.2519l-.227-.0715c-6.381.4786-12.906 1.4105-19.121 2.9381-.823.2386-1.575.2508-2.171.5609-.525.0836-1.05.1667-1.348.3218-.596.3101-1.3478.3222-1.9442.6323 0 0-.2267-.0712-.2983.1553-5.9882 1.599-11.893 3.7224-17.8693 6.0725-.2982.155-.5964.31-.823.2385-.5965.3101-1.4196.549-2.0161.8591-1.1213.3937-2.3142 1.0139-3.2089 1.479 0 0-.2267-.0712-.2983.1553-5.2965 2.5644-10.4378 5.4266-15.4242 8.5869-1.5628 1.0018-3.1254 2.0033-4.7598 3.2316-.668.5366-1.5627 1.0018-2.3024 1.7649-6.1674 4.5315-12.0249 9.6591-17.2741 15.2275-.3698.3816-.8112.9897-1.4793 1.5264-.0716.2264-.2982.1544-.3698.3814-.3698.382-.7396.763-1.181 1.371-.0716.227-.2984.156-.37.382-1.9207 2.134-3.913 4.495-5.607 6.701-1.1811 1.371-2.1355 2.814-3.3882 4.411-.9544 1.443-1.9089 2.885-2.9349 4.555-.0716.226-.4415.608-.5131.835-1.3959 2.05-2.5651 4.172-3.6627 6.068-.0716.226-.0716.226-.1432.453-3.5077 6.366-6.56219 12.876-8.93678 19.6-.1432.453-.35814 1.133-.50133 1.586l-.0715.226c-.50119 1.585-1.00238 3.171-1.43198 4.53-.35799 1.133-.6445 2.039-.77587 3.243-.0716.226-.07157.226-.14316.453-.2864.906-.42953 1.359-.64432 2.038Z" fill="url(#o)"/>
  <path d="M284.702 167.659c-.453-.143-9.768-4.575-13.738-13.299-3.733-7.902-1.99-16.568-1.572-18.678.071-.226.143-.452.143-.452l.227.071c3.566 2.121 10.624 20.785 13.605 28.699 1.014 2.312 1.335 3.659 1.335 3.659Z" fill="url(#p)"/>
  <defs>
    <linearGradient id="a" x1="279.953" y1="123.485" x2="275.796" y2="136.672" gradientUnits="userSpaceOnUse">
      <stop stop-color="#70090B"/>
      <stop offset="1" stop-color="#EA1D25"/>
    </linearGradient>
    <linearGradient id="b" x1="261.527" y1="102.09" x2="259.143" y2="109.649" gradientUnits="userSpaceOnUse">
      <stop stop-color="#70090B"/>
      <stop offset="1" stop-color="#EA1D25"/>
    </linearGradient>
    <linearGradient id="c" x1="249.264" y1="97.456" x2="239.439" y2="128.619" gradientUnits="userSpaceOnUse">
      <stop stop-color="#70090B"/>
      <stop offset="1" stop-color="#EA1D25"/>
    </linearGradient>
    <linearGradient id="d" x1="241.257" y1="81.3216" x2="238.975" y2="88.5608" gradientUnits="userSpaceOnUse">
      <stop stop-color="#70090B"/>
      <stop offset="1" stop-color="#EA1D25"/>
    </linearGradient>
    <linearGradient id="e" x1="230.942" y1="82.6849" x2="222.314" y2="110.054" gradientUnits="userSpaceOnUse">
      <stop stop-color="#70090B"/>
      <stop offset="1" stop-color="#EA1D25"/>
    </linearGradient>
    <linearGradient id="f" x1="219.454" y1="62.5471" x2="215.996" y2="73.5124" gradientUnits="userSpaceOnUse">
      <stop stop-color="#70090B"/>
      <stop offset="1" stop-color="#EA1D25"/>
    </linearGradient>
    <linearGradient id="g" x1="210.202" y1="70.9196" x2="202.766" y2="94.5058" gradientUnits="userSpaceOnUse">
      <stop stop-color="#70090B"/>
      <stop offset="1" stop-color="#EA1D25"/>
    </linearGradient>
    <linearGradient id="h" x1="195.573" y1="47.8429" x2="190.356" y2="64.3903" gradientUnits="userSpaceOnUse">
      <stop stop-color="#70090B"/>
      <stop offset="1" stop-color="#EA1D25"/>
    </linearGradient>
    <linearGradient id="i" x1="187.582" y1="63.2792" x2="181.474" y2="82.6551" gradientUnits="userSpaceOnUse">
      <stop stop-color="#70090B"/>
      <stop offset="1" stop-color="#EA1D25"/>
    </linearGradient>
    <linearGradient id="j" x1="170.115" y1="38.1695" x2="163.209" y2="60.0757" gradientUnits="userSpaceOnUse">
      <stop stop-color="#70090B"/>
      <stop offset="1" stop-color="#EA1D25"/>
    </linearGradient>
    <linearGradient id="k" x1="143.806" y1="33.3737" x2="135.465" y2="59.8347" gradientUnits="userSpaceOnUse">
      <stop stop-color="#70090B"/>
      <stop offset="1" stop-color="#EA1D25"/>
    </linearGradient>
    <linearGradient id="l" x1="117.162" y1="33.518" x2="107.699" y2="63.5326" gradientUnits="userSpaceOnUse">
      <stop stop-color="#70090B"/>
      <stop offset="1" stop-color="#EA1D25"/>
    </linearGradient>
    <linearGradient id="m" x1="270.395" y1="121.192" x2="263.421" y2="143.316" gradientUnits="userSpaceOnUse">
      <stop stop-color="#EA1D25"/>
      <stop offset="1" stop-color="#70090B"/>
    </linearGradient>
    <linearGradient id="n" x1="263.498" y1="118.259" x2="252.907" y2="151.848" gradientUnits="userSpaceOnUse">
      <stop stop-color="#70090B"/>
      <stop offset="1" stop-color="#EA1D25"/>
    </linearGradient>
    <linearGradient id="o" x1="157.724" y1="53.6614" x2="114.089" y2="192.047" gradientUnits="userSpaceOnUse">
      <stop stop-color="#EA1D25"/>
      <stop offset="1" stop-color="#70090B"/>
    </linearGradient>
    <linearGradient id="p" x1="281.239" y1="138.763" x2="273.245" y2="164.118" gradientUnits="userSpaceOnUse">
      <stop stop-color="#70090B"/>
      <stop offset="1" stop-color="#EA1D25"/>
    </linearGradient>
  </defs>
</svg>
