<svg width="305" height="315" fill="none" xmlns="http://www.w3.org/2000/svg">
  <path d="M56.1264 255.964c.3133-.357 8.1222-7.098 17.7144-7.226 8.7426-.239 15.9829 4.837 17.7483 6.067.1788.156.3574.312.3574.312l-.1566.179c-1.432 1.272-8.8151 6.807-17.5577 7.047-9.9276.15-18.1058-6.379-18.1058-6.379ZM198.198 42.816c.5-10.2981 6.587-17.599 6.744-17.7777.157-.1786 7.66 11.4432 6.176 22.1427-1.328 10.521-9.582 15.6088-9.582 15.6088s-4.017-9.8322-3.338-19.9738Zm10.604 22.8612c2.578-9.4254 9.917-15.6305 10.096-15.474.157-.1786 4.999 11.9547 1.614 21.938-3.227 9.8047-12.106 13.0825-12.106 13.0825-.179-.1565-2.183-10.1212.396-19.5465Zm5.93 23.5057c4.322-8.5306 12.442-13.1047 12.621-12.9482.156-.1786 2.651 12.1097-2.476 21.1982-4.971 8.9101-14.296 10.5341-14.296 10.5341-.022-.335-.171-10.2536 4.151-18.7841Zm1.548 23.4571c5.73-7.613 14.474-10.378 14.652-10.221.157-.179.304 12.264-6.097 19.922-6.4 7.658-15.657 7.763-15.657 7.763-.179-.156 1.372-9.85 7.102-17.464Zm-2.857 23.075c6.824-6.34 16.015-7.451 16.015-7.451s-1.911 11.906-9.406 18.289c-7.495 6.384-16.526 4.792-16.526 4.792s3.093-9.291 9.917-15.63Z" fill="#EC2027"/>
  <path d="M229.259 128.108s.179.157.336-.022c.179.157.514.135.693.291 2.436 1.186 8.224 4.675 11.102 12.563 3.368 10.211-1.203 22.629-1.359 22.808 0 0-7.42-5.233-9.916-14.997-1.338-4.96-1.534-10.501-1.307-14.723-.043-3.195.451-5.92.451-5.92Zm-22.292 29.74c7.919-5.065 16.706-4.635 16.884-4.478 0 0-3.966 11.367-12.4 16.299-8.433 4.931-17.06 1.798-17.06 1.798s4.657-8.553 12.576-13.619Z" fill="#EC2027"/>
  <path d="M223.495 153.058s8.045 4.518 9.58 15.018c1.534 10.501-5.116 22.046-5.272 22.225 0 0-6.144-6.327-7.142-16.358-.643-7.194 1.219-14.721 2.318-18.495l.516-2.39Zm-9.9 23.538s6.949 5.768 6.806 16.379c-.299 10.79-9.05 21.127-9.05 21.127-.179-.156-4.868-7.42-4.01-17.405.679-10.141 6.097-19.923 6.254-20.101Zm-46.91 29.343s7.473-6.719 16.262-8.813c8.945-2.273 16.924 1.24 17.103 1.397 0 0-.156.178-.47.535-1.88 2.144-8.325 9.131-16.643 10.69-9.482 1.803-16.252-3.809-16.252-3.809Z" fill="#EC2027"/>
  <path d="m199.872 198.367.179.156.179.157c1.116 1.609 5.404 7.889 3.474 16.935-2.064 9.56-10.791 17.708-12.379 19.159l-.157.179c-.179-.157-3.571-8.179-.857-18.118 2.04-7.371 6.629-14.404 8.8-17.24.292-.692.761-1.228.761-1.228Zm-51.509 20.895s8.746-5.289 17.802-5.886c9.213-.775 16.61 4.122 16.453 4.301-.47.536-9.241 8.013-18.833 8.141-9.749.306-15.266-6.735-15.422-6.556Z" fill="#EC2027"/>
  <path d="M179.733 219.887c1.745-1.629 2.685-2.701 2.685-2.701l.022.335.179.157c.96 1.787 3.771 8.67.299 17.312-4.055 10.028-16.223 17.057-16.067 16.878 0 0-1.916-8.625 2.518-18.004 2.822-5.739 7.701-10.941 10.364-13.977Zm-52.105 9.323s9.708-3.501 18.852-2.757c9.323.9 15.623 7.047 15.623 7.047-.156.179-10.514 6.583-20.396 4.879-9.702-1.549-13.922-9.348-14.079-9.169Z" fill="#EC2027"/>
  <path d="M148.971 243.79c5.662-6.095 12.462-10.245 12.954-10.446 0 0 2.922 8.558-2.876 17.691-5.955 9.311-19.284 14.06-19.463 13.904 0 0-.239-8.735 6.118-17.063 1.074-1.585 2.17-2.836 3.267-4.086Zm-43.818-8.051c1.163-.245 11.002-1.735 19.743.549 7.712 2.016 12.448 7.425 13.743 9.191.358.313.202.492.202.492l-.157.179c-.157.178-.492.2-1.32.423-3.288 1.227-12.412 3.343-19.99.813-9.321-3.424-12.064-11.826-12.221-11.647Z" fill="#EC2027"/>
  <path d="M119.336 256.681c7.003-6.183 16.173-10.153 18.633-11.157.335-.022.492-.201.492-.201s.245 1.162.02 2.86c-.293 3.217-1.438 8.845-6.495 13.89-7.899 7.925-22.389 10.395-22.567 10.238 0 0 .134-.514.268-1.027.27-1.028.852-2.412 1.569-4.311.135-.513.605-1.049.739-1.563 1.836-2.813 3.985-5.984 7.341-8.729Zm-39.5169-19.442c.1788.156 11.4704.254 20.3219 4.214 8.516 3.982 12.377 11.468 12.578 11.96l-.156.179-.157.178c-.335.022-.671.045-1.006.067-3.511.4-13.3945 1.219-20.9041-2.829-9.4317-5.1-10.5201-13.948-10.6768-13.769Z" fill="#EC2027"/>
  <path d="M90.4667 260.769c6.5091-3.458 13.7773-5.619 18.2503-6.756l.335-.022c2.147-.646 3.489-.735 3.489-.735l-.157.179c-.247 1.363-1.237 9.337-10.118 15.139-9.1943 6.159-23.526 5.926-25.0463 5.858 0 0-.0002 0-.1789-.157 0 0 3.6733-8.151 13.4259-13.506Z" fill="#EC2027"/>
  <path d="M112.541 253.257c-.336.022-.671.044-.828.223l.828-.223Z" fill="#991C1F"/>
  <path d="M90.4667 260.769c3.4223-1.74 7.0232-3.323 10.3113-4.55 3.197-.042 6.551-.263 9.726-.641-7.764 7.411-31.987 18.095-33.4631 18.697 0 0 3.6733-8.151 13.4258-13.506Z" fill="url(#a)"/>
  <path d="m108.882 271.841.157-.179c.179.157.022.335-.157.179Z" fill="#991C1F"/>
  <path d="M119.335 256.68c1.432-1.272 3.043-2.388 4.497-3.325 2.416-1.674 4.854-3.013 6.8-4.151 2.483-.668 4.943-1.671 7.403-2.675-.448.871-1.388 1.942-2.149 3.17-7.654 9.087-26.267 23.103-26.267 23.103s.135-.513.27-1.027c.269-1.027.851-2.412 1.568-4.311.134-.513.604-1.049.739-1.563 1.635-3.305 3.783-6.475 7.139-9.221Z" fill="url(#b)"/>
  <path d="M105.31 235.56c1.006-.066 11.002-1.735 19.586.728 7.712 2.016 12.448 7.425 13.743 9.191.179.156.201.492.201.492.201.491.223.826.223.826s-.514-.134-1.364-.246c-5.141-1.344-25.149-5.915-32.389-10.991Z" fill="url(#c)"/>
  <path d="m148.971 243.79 12.953-10.446c-2.94 14.161-22.338 31.594-22.338 31.594s-.239-8.734 6.117-17.062c1.075-1.586 2.171-2.836 3.268-4.086Z" fill="url(#d)"/>
  <path d="M127.628 229.21s9.707-3.501 18.852-2.757c9.323.899 15.623 7.047 15.623 7.047-7.493 3.86-34.475-4.29-34.475-4.29Z" fill="url(#e)"/>
  <path d="m179.733 219.887 2.886-2.209s0-.001.022.334c-.39 11.974-15.924 34.369-15.924 34.369s-1.916-8.624 2.518-18.003c2.956-6.253 7.835-11.455 10.498-14.491Z" fill="url(#f)"/>
  <path d="M148.363 219.261s8.746-5.288 17.802-5.885c9.213-.776 16.61 4.122 16.453 4.301-6.308 3.949-34.255 1.584-34.255 1.584Z" fill="url(#g)"/>
  <path d="m198.619 199.795 1.432-1.272.022.335c.55 10.902-7.202 31.27-8.905 36.094l-.157.179c-.178-.157-3.571-8.179-.857-18.118 1.862-7.527 6.473-14.226 8.465-17.218Z" fill="url(#h)"/>
  <path d="M166.685 205.939s7.473-6.72 16.262-8.813c8.945-2.273 16.924 1.24 17.103 1.396 0 0-.157.179-.47.536-7.204 5.692-32.895 6.881-32.895 6.881Z" fill="url(#i)"/>
  <path d="M213.595 176.596c3.88 12.87-2.244 37.506-2.244 37.506-.179-.157-4.868-7.42-4.01-17.405.679-10.142 6.097-19.923 6.254-20.101Z" fill="url(#j)"/>
  <path d="M223.495 153.057c6.117 11.04 4.308 37.243 4.308 37.243s-6.144-6.326-7.142-16.357c-.643-7.194 1.219-14.721 2.318-18.496l.516-2.39Z" fill="url(#k)"/>
  <path d="M229.595 128.086c.179.157.514.134.872.447 6.39 4.964 9.586 35.55 9.586 35.55s-7.419-5.233-9.916-14.997c-1.337-4.96-1.534-10.501-1.307-14.723l.765-6.277Z" fill="url(#l)"/>
  <path d="m111.534 253.322-2.661.512-.335.022c-1.991.468-4.808 1.159-7.939 2.207-6.5517.263-13.326-.3-19.9658-1.376l.2029-2.033c10.7309 1.817 21.0159 1.98 30.6979.668Z" fill="url(#m)"/>
  <path d="M79.8186 237.238c.1788.157 11.4705.254 20.3214 4.214 8.516 3.983 12.378 11.469 12.579 11.961l-.157.178-.156.179c-.336.022-.492.201-.828.223-8.807-3.29-25.5693-12.282-31.7594-16.755Z" fill="url(#n)"/>
  <path d="m179.834 1.78695 1.41-1.60745c1.587 1.07337 3.017 2.32541 4.268 3.42089 1.251 1.09548 2.502 2.19072 3.753 3.2862.715.62599 1.43 1.25189 2.145 1.87789.358.31299.716.62629 1.252 1.09577 8.087 7.71255 14.9 16.51875 20.772 26.39665.179.1565.38.648.558.8045 1.876 2.9054 3.416 5.8329 4.8 8.939 6.005 11.8885 10.042 24.5802 12.111 38.0745.578 3.6641 1.134 6.9929 1.377 10.679.177 2.6808.354 5.3621.352 7.8861.153 4.87-.052 9.427-.257 13.984-.406 4.066-.812 8.131-1.396 12.04 0 0-.157.179.022.335-.584 3.909-1.347 7.662-2.267 11.593.022.335-.292.692-.27 1.027-1.076 4.11-2.153 8.219-3.743 12.195.022.335-.292.692-.269 1.027-.987 2.926-1.995 5.517-3.16 8.286-.134.514-.448.871-.582 1.384-1.904 4.333-3.987 8.509-6.405 12.707-.156.179-.156.179-.313.357-.896 1.742-1.97 3.328-3.045 4.913-.291.692-.761 1.228-1.231 1.764-.291.692-.761 1.228-1.388 1.943-2.753 4.22-5.528 8.105-8.483 11.834-.313.357-.626.714-.94 1.071-.156.179-.47.536-.626.715-.157.178-.47.536-.627.714-.783.893-1.567 1.786-2.171 2.836-4.051 4.978-8.303 9.466-12.554 13.953l-.157.179c-2.372 2.344-4.587 4.509-6.981 6.518-.47.536-1.275 1.094-1.745 1.63-3.67 3.102-7.518 6.048-11.209 8.816l-.157.179c-.313.357-.649.379-.806.557-3.064 2.053-6.129 4.107-9.216 5.825-.492.201-1.141.58-1.454.937-.157.178-.492.201-.649.379-.492.201-.805.558-1.297.759-3.265 1.562-6.531 3.123-9.797 4.685-.156.178-.335.022-.492.2-.827.223-1.476.602-2.304.825-3.936 1.606-8.073 2.72-12.054 3.655-.335.023-.827.224-1.162.246-3.489.735-6.978 1.469-10.488 1.869l-.336.022c-.335.022-.671.044-1.006.066.156-.178.313-.357.313-.357.313-.357.627-.714.94-1.072.157-.178.313-.357.47-.535l.157-.179c5.344-.689 10.644-2.048 15.944-3.407.828-.223 1.477-.602 2.147-.646.157-.179.336-.022.493-.201.827-.223 1.654-.446 2.303-.825.157-.178.335-.022.335-.022.492-.201.984-.402 1.32-.424.492-.2.984-.401 1.476-.602.336-.022.492-.201.649-.379.156-.179.335-.022.492-.201l.156-.178s.157-.179.336-.022c0 0 .156-.179.335-.023l.157-.178c4.093-1.785 8.007-3.725 11.9-6.001 1.454-.938 3.243-1.897 4.697-2.834.805-.558 1.454-.938 2.26-1.495.805-.558 1.454-.938 2.259-1.496l.157-.178c.492-.201.805-.558 1.297-.759 4.184-2.968 8.345-6.272 12.484-9.91.313-.357.962-.736 1.276-1.094 1.118-.915 2.058-1.987 3.333-3.08.784-.893 1.589-1.451 2.372-2.345 2.999-3.058 5.997-6.116 8.817-9.331.313-.357.627-.714.94-1.072 1.253-1.429 2.506-2.858 3.581-4.443 1.096-1.25 2.014-2.657 3.111-3.907l.156-.179c2.955-3.729 5.887-7.792 8.797-12.191 5.059-7.569 9.426-15.43 12.764-23.559.447-.871.738-1.564 1.008-2.591.873-2.077 1.59-3.975 2.307-5.873l.157-.179c2.129-6.03 3.9-12.374 5.001-18.672.112-.849.403-1.542.359-2.212.135-.513.27-1.027.248-1.362-.045-.67.247-1.363.202-2.033 0 0 .157-.178-.022-.335.944-6.12 1.374-12.375 1.625-18.786-.022-.335-.044-.67.113-.849-.045-.67.068-1.519.024-2.189.09-1.184.002-2.525-.065-3.53 0 0 .157-.179-.022-.335-.219-5.8755-.773-11.7286-1.663-17.5598-.289-1.832-.578-3.6638-1.046-5.6524-.223-.8267-.289-1.832-.691-2.8152-1.671-7.4624-4.012-14.8807-7.003-21.9196-.201-.4916-.58-1.1398-.803-1.9665-.179-.1565-.022-.3351-.201-.4915-.201-.4917-.402-.9832-.781-1.6313-.179-.1565-.023-.3354-.201-.4919-1.183-2.6145-2.545-5.3853-3.884-7.8212-.782-1.6313-1.72-3.0839-2.68-4.8717-.937-1.4527-1.875-2.9053-2.992-4.5145-.179-.1565-.38-.6483-.558-.8048-1.318-2.1008-2.792-4.0229-4.087-5.7885l-.358-.313c-4.422-5.7665-9.158-11.1758-14.364-16.04935-.357-.31299-.894-.78279-1.251-1.09578l-.179-.15627c-1.251-1.09548-2.502-2.19095-3.575-3.12994-.893-.78248-1.608-1.4087-2.659-2.01258-.179-.15649-.179-.15642-.357-.31291-.715-.626-1.073-.93883-1.609-1.40832Z" fill="url(#o)"/>
  <path d="M56.2831 255.785c.3133-.357 8.1222-7.098 17.7143-7.225 8.7426-.24 15.983 4.836 17.7484 6.066.1787.156.3574.313.3574.313l-.1567.178c-3.3781 2.411-23.3217 1.369-31.773.917-2.5266-.002-3.8904-.249-3.8904-.249Z" fill="url(#p)"/>
  <defs>
    <linearGradient id="a" x1="98.6727" y1="269.193" x2="88.2801" y2="260.078" gradientUnits="userSpaceOnUse">
      <stop stop-color="#70090B"/>
      <stop offset="1" stop-color="#EA1D25"/>
    </linearGradient>
    <linearGradient id="b" x1="125.689" y1="260.94" x2="119.732" y2="255.715" gradientUnits="userSpaceOnUse">
      <stop stop-color="#70090B"/>
      <stop offset="1" stop-color="#EA1D25"/>
    </linearGradient>
    <linearGradient id="c" x1="134.867" y1="251.583" x2="110.297" y2="230.033" gradientUnits="userSpaceOnUse">
      <stop stop-color="#70090B"/>
      <stop offset="1" stop-color="#EA1D25"/>
    </linearGradient>
    <linearGradient id="d" x1="152.871" y1="250.748" x2="147.167" y2="245.744" gradientUnits="userSpaceOnUse">
      <stop stop-color="#70090B"/>
      <stop offset="1" stop-color="#EA1D25"/>
    </linearGradient>
    <linearGradient id="e" x1="155.77" y1="240.761" x2="134.192" y2="221.835" gradientUnits="userSpaceOnUse">
      <stop stop-color="#70090B"/>
      <stop offset="1" stop-color="#EA1D25"/>
    </linearGradient>
    <linearGradient id="f" x1="178.843" y1="238.349" x2="170.201" y2="230.769" gradientUnits="userSpaceOnUse">
      <stop stop-color="#70090B"/>
      <stop offset="1" stop-color="#EA1D25"/>
    </linearGradient>
    <linearGradient id="g" x1="174.89" y1="226.518" x2="156.296" y2="210.209" gradientUnits="userSpaceOnUse">
      <stop stop-color="#70090B"/>
      <stop offset="1" stop-color="#EA1D25"/>
    </linearGradient>
    <linearGradient id="h" x1="201.919" y1="222.413" x2="188.877" y2="210.974" gradientUnits="userSpaceOnUse">
      <stop stop-color="#70090B"/>
      <stop offset="1" stop-color="#EA1D25"/>
    </linearGradient>
    <linearGradient id="i" x1="190.986" y1="208.897" x2="175.713" y2="195.501" gradientUnits="userSpaceOnUse">
      <stop stop-color="#70090B"/>
      <stop offset="1" stop-color="#EA1D25"/>
    </linearGradient>
    <linearGradient id="j" x1="221.02" y1="203.013" x2="203.752" y2="187.867" gradientUnits="userSpaceOnUse">
      <stop stop-color="#70090B"/>
      <stop offset="1" stop-color="#EA1D25"/>
    </linearGradient>
    <linearGradient id="k" x1="235.993" y1="180.874" x2="215.132" y2="162.578" gradientUnits="userSpaceOnUse">
      <stop stop-color="#70090B"/>
      <stop offset="1" stop-color="#EA1D25"/>
    </linearGradient>
    <linearGradient id="l" x1="246.574" y1="156.441" x2="222.91" y2="135.687" gradientUnits="userSpaceOnUse">
      <stop stop-color="#70090B"/>
      <stop offset="1" stop-color="#EA1D25"/>
    </linearGradient>
    <linearGradient id="m" x1="104.618" y1="261.371" x2="87.1771" y2="246.074" gradientUnits="userSpaceOnUse">
      <stop stop-color="#EA1D25"/>
      <stop offset="1" stop-color="#70090B"/>
    </linearGradient>
    <linearGradient id="n" x1="110.08" y1="256.241" x2="83.5961" y2="233.012" gradientUnits="userSpaceOnUse">
      <stop stop-color="#70090B"/>
      <stop offset="1" stop-color="#EA1D25"/>
    </linearGradient>
    <linearGradient id="o" x1="211.793" y1="185.431" x2="102.698" y2="89.7458" gradientUnits="userSpaceOnUse">
      <stop stop-color="#EA1D25"/>
      <stop offset="1" stop-color="#70090B"/>
    </linearGradient>
    <linearGradient id="p" x1="84.1557" y1="264.227" x2="64.1657" y2="246.694" gradientUnits="userSpaceOnUse">
      <stop stop-color="#70090B"/>
      <stop offset="1" stop-color="#EA1D25"/>
    </linearGradient>
  </defs>
</svg>
