<svg width="18" height="15" viewBox="0 0 18 15" fill="none" xmlns="http://www.w3.org/2000/svg">
<path d="M16.5625 12.8125H0.898438C0.390625 12.8125 0 13.2422 0 13.75C0 14.2969 0.390625 14.6875 0.898438 14.6875H16.5625C17.0703 14.6875 17.5 14.2969 17.5 13.7891C17.5 13.2422 17.0703 12.8125 16.5625 12.8125ZM16.5625 0.3125H0.898438C0.390625 0.3125 0 0.742188 0 1.25C0 1.71875 0.390625 2.1875 0.898438 2.1875H16.5625C17.0703 2.1875 17.5 1.79688 17.5 1.28906C17.5 0.820312 17.0703 0.3125 16.5625 0.3125ZM16.5625 6.5625H0.898438C0.390625 6.5625 0 6.99219 0 7.5C0 8.04688 0.390625 8.4375 0.898438 8.4375H16.5625C17.0703 8.4375 17.5 8.04688 17.5 7.5C17.5 6.99219 17.0703 6.5625 16.5625 6.5625Z" fill="white"/>
</svg>
