<svg width="24" height="24" viewBox="0 0 24 24" fill="none" xmlns="http://www.w3.org/2000/svg">
<g clip-path="url(#clip0_463_3196)">
<path fill-rule="evenodd" clip-rule="evenodd" d="M12.2548 2.41707C15.4589 2.41707 15.8384 2.42931 17.1039 2.48705C18.2739 2.54044 18.9092 2.73588 19.3321 2.90022C19.8533 3.09259 20.3248 3.39933 20.7119 3.79788C21.1104 4.18495 21.4172 4.65642 21.6095 5.17763C21.7739 5.60048 21.9694 6.23587 22.0227 7.40584C22.0805 8.67123 22.0927 9.05073 22.0927 12.255C22.0927 15.4592 22.0805 15.8386 22.0227 17.1041C21.9693 18.274 21.7738 18.9094 21.6095 19.3323C21.4099 19.8498 21.1041 20.3198 20.7119 20.712C20.3197 21.1043 19.8497 21.41 19.3321 21.6097C18.9093 21.774 18.2739 21.9695 17.1039 22.0229C15.8388 22.0806 15.4593 22.0928 12.2548 22.0928C9.05035 22.0928 8.67099 22.0806 7.4057 22.0229C6.23572 21.9695 5.60038 21.774 5.17749 21.6097C4.65628 21.4173 4.18481 21.1106 3.79773 20.712C3.39918 20.325 3.09245 19.8535 2.90008 19.3323C2.73574 18.9094 2.54025 18.274 2.4869 17.1041C2.42917 15.8387 2.41693 15.4592 2.41693 12.255C2.41693 9.05073 2.42917 8.67133 2.4869 7.40584C2.5403 6.23587 2.73574 5.60053 2.90008 5.17763C3.09247 4.6564 3.39924 4.18491 3.79783 3.79783C4.1849 3.39928 4.65638 3.09254 5.17759 2.90017C5.60043 2.73584 6.23582 2.54035 7.4058 2.487C8.67119 2.42927 9.05068 2.41702 12.2549 2.41702L12.2548 2.41707ZM12.2548 0.254883C8.9959 0.254883 8.5871 0.268697 7.30739 0.327095C6.03009 0.385399 5.15782 0.588223 4.39454 0.884886C3.59384 1.1862 2.86851 1.65854 2.26912 2.26898C1.65855 2.86833 1.18607 3.59366 0.884648 4.39439C0.588223 5.15772 0.385399 6.02999 0.327334 7.30729C0.268697 8.58702 0.254883 8.99581 0.254883 12.2548C0.254883 15.5138 0.268697 15.9226 0.327334 17.2023C0.385637 18.4796 0.588462 19.3519 0.885124 20.1152C1.18644 20.9159 1.65878 21.6412 2.26922 22.2406C2.8686 22.851 3.59394 23.3234 4.39463 23.6247C5.15796 23.9213 6.03023 24.1242 7.30748 24.1825C8.5874 24.2409 8.99605 24.2547 12.255 24.2547C15.514 24.2547 15.9228 24.2409 17.2025 24.1825C18.4798 24.1242 19.3521 23.9213 20.1154 23.6247C20.9125 23.3164 21.6364 22.845 22.2408 22.2406C22.8451 21.6363 23.3166 20.9123 23.6249 20.1152C23.9215 19.3518 24.1244 18.4796 24.1827 17.2023C24.2411 15.9224 24.2549 15.5138 24.2549 12.2548C24.2549 8.99586 24.2411 8.58702 24.1827 7.30729C24.1244 6.02999 23.9215 5.15772 23.6249 4.39444C23.3236 3.59375 22.8512 2.86841 22.2408 2.26903C21.6414 1.65847 20.916 1.18602 20.1152 0.884648C19.3519 0.588223 18.4796 0.385399 17.2023 0.327334C15.9226 0.268697 15.5138 0.254883 12.2548 0.254883ZM12.2548 6.09262C11.036 6.09262 9.84461 6.45402 8.83125 7.13112C7.8179 7.80823 7.02808 8.77062 6.56168 9.8966C6.09529 11.0226 5.97325 12.2616 6.21102 13.4569C6.44879 14.6523 7.03568 15.7502 7.89747 16.612C8.75926 17.4738 9.85724 18.0607 11.0526 18.2985C12.2479 18.5362 13.4869 18.4142 14.6129 17.9478C15.7389 17.4814 16.7013 16.6916 17.3784 15.6782C18.0555 14.6649 18.4169 13.4735 18.4169 12.2547C18.4169 10.6204 17.7677 9.05309 16.612 7.89746C15.4564 6.74184 13.8891 6.09262 12.2548 6.09262ZM12.2548 16.2547C11.4636 16.2547 10.6903 16.0201 10.0325 15.5806C9.37473 15.141 8.86206 14.5163 8.55932 13.7854C8.25658 13.0545 8.17737 12.2503 8.33172 11.4744C8.48606 10.6985 8.86702 9.98574 9.42643 9.42634C9.98583 8.86695 10.6986 8.48599 11.4745 8.33166C12.2504 8.17732 13.0546 8.25654 13.7855 8.55929C14.5164 8.86203 15.1411 9.37472 15.5806 10.0325C16.0202 10.6903 16.2547 11.4636 16.2547 12.2547C16.2547 13.3156 15.8333 14.333 15.0832 15.0831C14.333 15.8333 13.3156 16.2547 12.2548 16.2547ZM20.1004 5.8494C20.1004 6.64468 19.4557 7.28937 18.6604 7.28937C17.8652 7.28937 17.2205 6.64468 17.2205 5.8494C17.2205 5.05413 17.8652 4.40943 18.6604 4.40943C19.4557 4.40943 20.1004 5.05413 20.1004 5.8494Z" fill="inherit"/>
</g>
<defs>
<clipPath id="clip0_463_3196">
<rect width="24" height="24" fill="white"/>
</clipPath>
</defs>
</svg>
